<svg width="356" height="209" viewBox="0 0 356 209" fill="none" xmlns="http://www.w3.org/2000/svg">
<rect x="4" width="352" height="190.018" rx="30" fill="#FFC533"/>
<rect x="10.2301" y="6.2301" width="339.54" height="177.558" rx="30" fill="white"/>
<rect x="20" y="95" width="319" height="77" rx="30" fill="#D9D9D9"/>
<path d="M84 95H148V172H84V95Z" fill="#85BC21"/>
<path d="M148 95H212V172H148V95Z" fill="#FFCC00"/>
<path d="M212 95H276V172H212V95Z" fill="#F07C00"/>
<path d="M275 95H309C325.569 95 339 108.431 339 125V142C339 158.569 325.569 172 309 172H275V95Z" fill="#E62C10"/>
<path d="M88.059 43C87.7063 43 87.3997 42.8697 87.139 42.609C86.8783 42.3483 86.748 42.0417 86.748 41.689V27.521C86.748 27.1683 86.8783 26.8617 87.139 26.601C87.3997 26.3403 87.7063 26.21 88.059 26.21H89.186C90.06 26.21 90.6963 26.5933 91.095 27.36L95.925 36.491C95.925 36.5063 95.9327 36.514 95.948 36.514C95.9633 36.514 95.971 36.5063 95.971 36.491V27.521C95.971 27.1683 96.1013 26.8617 96.362 26.601C96.6227 26.3403 96.9293 26.21 97.282 26.21H98.409C98.7617 26.21 99.0683 26.3403 99.329 26.601C99.5897 26.8617 99.72 27.1683 99.72 27.521V41.689C99.72 42.0417 99.5897 42.3483 99.329 42.609C99.0683 42.8697 98.7617 43 98.409 43H97.282C96.408 43 95.7717 42.6167 95.373 41.85L90.543 32.719C90.543 32.7037 90.5353 32.696 90.52 32.696C90.5047 32.696 90.497 32.7037 90.497 32.719V41.689C90.497 42.0417 90.3667 42.3483 90.106 42.609C89.8453 42.8697 89.5387 43 89.186 43H88.059ZM119.082 36.905C119.082 41.1217 116.935 43.23 112.642 43.23C108.349 43.23 106.202 41.1217 106.202 36.905V27.521C106.202 27.1683 106.332 26.8617 106.593 26.601C106.854 26.3403 107.16 26.21 107.513 26.21H108.847C109.2 26.21 109.506 26.3403 109.767 26.601C110.028 26.8617 110.158 27.1683 110.158 27.521V37.181C110.158 38.2237 110.357 38.9673 110.756 39.412C111.155 39.8567 111.799 40.079 112.688 40.079C113.577 40.079 114.221 39.8567 114.62 39.412C115.019 38.9673 115.218 38.2237 115.218 37.181V27.521C115.218 27.1683 115.348 26.8617 115.609 26.601C115.87 26.3403 116.176 26.21 116.529 26.21H117.771C118.124 26.21 118.43 26.3403 118.691 26.601C118.952 26.8617 119.082 27.1683 119.082 27.521V36.905ZM126.313 29.453C125.96 29.453 125.653 29.3227 125.393 29.062C125.132 28.8013 125.002 28.4947 125.002 28.142V27.521C125.002 27.1683 125.132 26.8617 125.393 26.601C125.653 26.3403 125.96 26.21 126.313 26.21H136.571C136.923 26.21 137.23 26.3403 137.491 26.601C137.751 26.8617 137.882 27.1683 137.882 27.521V28.142C137.882 28.4947 137.751 28.8013 137.491 29.062C137.23 29.3227 136.923 29.453 136.571 29.453H133.627C133.504 29.453 133.443 29.5143 133.443 29.637V41.689C133.443 42.0417 133.312 42.3483 133.052 42.609C132.791 42.8697 132.484 43 132.132 43H130.752C130.399 43 130.092 42.8697 129.832 42.609C129.571 42.3483 129.441 42.0417 129.441 41.689V29.637C129.441 29.5143 129.379 29.453 129.257 29.453H126.313ZM147.866 29.292V33.708C147.866 33.846 147.928 33.915 148.05 33.915H149.154C150.228 33.915 151.048 33.6927 151.615 33.248C152.183 32.788 152.466 32.1517 152.466 31.339C152.466 29.7443 151.416 28.947 149.315 28.947C148.84 28.947 148.426 28.9777 148.073 29.039C147.935 29.0697 147.866 29.154 147.866 29.292ZM145.336 43C144.984 43 144.677 42.8697 144.416 42.609C144.156 42.3483 144.025 42.0417 144.025 41.689V27.636C144.025 27.2527 144.148 26.923 144.393 26.647C144.654 26.371 144.968 26.2177 145.336 26.187C146.701 26.049 148.104 25.98 149.545 25.98C151.845 25.98 153.555 26.417 154.674 27.291C155.809 28.1497 156.376 29.3763 156.376 30.971C156.376 31.9983 156.077 32.926 155.479 33.754C154.881 34.5667 154.099 35.1493 153.133 35.502C153.118 35.502 153.11 35.5097 153.11 35.525C153.11 35.5557 153.126 35.571 153.156 35.571C153.908 36.0003 154.544 36.905 155.065 38.285L156.376 41.781C156.484 42.0723 156.445 42.3483 156.261 42.609C156.077 42.8697 155.832 43 155.525 43H154.122C153.724 43 153.363 42.885 153.041 42.655C152.719 42.425 152.497 42.126 152.374 41.758L151.224 38.446C151.01 37.802 150.749 37.365 150.442 37.135C150.136 36.905 149.66 36.79 149.016 36.79H148.05C147.928 36.79 147.866 36.859 147.866 36.997V41.689C147.866 42.0417 147.736 42.3483 147.475 42.609C147.215 42.8697 146.908 43 146.555 43H145.336ZM163.882 43C163.529 43 163.223 42.8697 162.962 42.609C162.717 42.3483 162.594 42.0417 162.594 41.689V27.521C162.594 27.1683 162.717 26.8617 162.962 26.601C163.223 26.3403 163.529 26.21 163.882 26.21H165.584C165.937 26.21 166.236 26.3403 166.481 26.601C166.742 26.8617 166.872 27.1683 166.872 27.521V41.689C166.872 42.0417 166.742 42.3483 166.481 42.609C166.236 42.8697 165.937 43 165.584 43H163.882ZM175.248 43C174.895 43 174.589 42.8697 174.328 42.609C174.067 42.3483 173.937 42.0417 173.937 41.689V27.521C173.937 27.1683 174.067 26.8617 174.328 26.601C174.589 26.3403 174.895 26.21 175.248 26.21H176.559C176.958 26.21 177.318 26.3173 177.64 26.532C177.962 26.7467 178.2 27.038 178.353 27.406L181.918 36.077C181.918 36.0923 181.926 36.1 181.941 36.1C181.956 36.1 181.964 36.0923 181.964 36.077L185.529 27.406C185.682 27.038 185.92 26.7467 186.242 26.532C186.564 26.3173 186.924 26.21 187.323 26.21H188.726C189.079 26.21 189.385 26.3403 189.646 26.601C189.907 26.8617 190.037 27.1683 190.037 27.521V41.689C190.037 42.0417 189.907 42.3483 189.646 42.609C189.385 42.8697 189.079 43 188.726 43H187.622C187.269 43 186.963 42.8697 186.702 42.609C186.457 42.3483 186.334 42.0417 186.334 41.689V32.742C186.334 32.7267 186.326 32.719 186.311 32.719C186.28 32.719 186.265 32.7267 186.265 32.742L184.057 37.963C183.904 38.331 183.658 38.6223 183.321 38.837C182.999 39.0517 182.639 39.159 182.24 39.159H181.642C181.243 39.159 180.875 39.0517 180.538 38.837C180.216 38.6223 179.978 38.331 179.825 37.963L177.617 32.742C177.617 32.7267 177.602 32.719 177.571 32.719C177.556 32.719 177.548 32.7267 177.548 32.742V41.689C177.548 42.0417 177.418 42.3483 177.157 42.609C176.912 42.8697 176.613 43 176.26 43H175.248ZM202.723 29.614L201.044 36.215C201.028 36.261 201.036 36.307 201.067 36.353C201.113 36.3837 201.159 36.399 201.205 36.399H204.287C204.333 36.399 204.371 36.3837 204.402 36.353C204.448 36.307 204.463 36.261 204.448 36.215L202.769 29.614C202.769 29.5987 202.761 29.591 202.746 29.591C202.73 29.591 202.723 29.5987 202.723 29.614ZM196.582 43C196.26 43 195.999 42.8697 195.8 42.609C195.616 42.3483 195.577 42.0647 195.685 41.758L200.331 27.452C200.453 27.084 200.668 26.785 200.975 26.555C201.297 26.325 201.649 26.21 202.033 26.21H203.551C203.949 26.21 204.31 26.325 204.632 26.555C204.954 26.785 205.168 27.084 205.276 27.452L209.899 41.758C210.006 42.0647 209.96 42.3483 209.761 42.609C209.577 42.8697 209.324 43 209.002 43H207.461C207.077 43 206.732 42.885 206.426 42.655C206.119 42.4097 205.92 42.103 205.828 41.735L205.276 39.55C205.26 39.4273 205.184 39.366 205.046 39.366H200.446C200.323 39.366 200.246 39.4273 200.216 39.55L199.664 41.735C199.572 42.103 199.372 42.4097 199.066 42.655C198.759 42.885 198.414 43 198.031 43H196.582ZM213.434 29.453C213.081 29.453 212.775 29.3227 212.514 29.062C212.253 28.8013 212.123 28.4947 212.123 28.142V27.521C212.123 27.1683 212.253 26.8617 212.514 26.601C212.775 26.3403 213.081 26.21 213.434 26.21H223.692C224.045 26.21 224.351 26.3403 224.612 26.601C224.873 26.8617 225.003 27.1683 225.003 27.521V28.142C225.003 28.4947 224.873 28.8013 224.612 29.062C224.351 29.3227 224.045 29.453 223.692 29.453H220.748C220.625 29.453 220.564 29.5143 220.564 29.637V41.689C220.564 42.0417 220.434 42.3483 220.173 42.609C219.912 42.8697 219.606 43 219.253 43H217.873C217.52 43 217.214 42.8697 216.953 42.609C216.692 42.3483 216.562 42.0417 216.562 41.689V29.637C216.562 29.5143 216.501 29.453 216.378 29.453H213.434ZM232.435 43C232.082 43 231.775 42.8697 231.515 42.609C231.269 42.3483 231.147 42.0417 231.147 41.689V27.521C231.147 27.1683 231.269 26.8617 231.515 26.601C231.775 26.3403 232.082 26.21 232.435 26.21H240.577C240.929 26.21 241.228 26.3403 241.474 26.601C241.734 26.8617 241.865 27.1683 241.865 27.521V28.05C241.865 28.4027 241.734 28.7093 241.474 28.97C241.228 29.2307 240.929 29.361 240.577 29.361H235.241C235.118 29.361 235.057 29.4223 235.057 29.545V32.581C235.057 32.719 235.118 32.788 235.241 32.788H240.117C240.469 32.788 240.768 32.9183 241.014 33.179C241.274 33.4397 241.405 33.7463 241.405 34.099V34.444C241.405 34.7967 241.274 35.1033 241.014 35.364C240.768 35.6247 240.469 35.755 240.117 35.755H235.241C235.118 35.755 235.057 35.8163 235.057 35.939V39.665C235.057 39.7877 235.118 39.849 235.241 39.849H240.577C240.929 39.849 241.228 39.9793 241.474 40.24C241.734 40.5007 241.865 40.8073 241.865 41.16V41.689C241.865 42.0417 241.734 42.3483 241.474 42.609C241.228 42.8697 240.929 43 240.577 43H232.435ZM249.142 32.19C248.804 32.19 248.528 32.0673 248.314 31.822C248.114 31.5613 248.045 31.2623 248.107 30.925L249.027 26.555C249.103 26.187 249.287 25.888 249.579 25.658C249.87 25.4127 250.207 25.29 250.591 25.29H252.431C252.737 25.29 252.975 25.4203 253.144 25.681C253.328 25.9417 253.366 26.2177 253.259 26.509L251.534 30.971C251.396 31.339 251.166 31.638 250.844 31.868C250.522 32.0827 250.161 32.19 249.763 32.19H249.142ZM263.958 36.284C262.026 35.6707 260.631 34.9117 259.772 34.007C258.914 33.087 258.484 31.9677 258.484 30.649C258.484 29.2077 258.983 28.073 259.979 27.245C260.991 26.4017 262.433 25.98 264.303 25.98C265.714 25.98 266.994 26.141 268.144 26.463C268.512 26.5703 268.804 26.7927 269.018 27.13C269.248 27.452 269.363 27.8123 269.363 28.211V28.878C269.363 29.1847 269.233 29.4223 268.972 29.591C268.712 29.7597 268.436 29.7903 268.144 29.683C266.841 29.223 265.637 28.993 264.533 28.993C263.123 28.993 262.417 29.545 262.417 30.649C262.417 31.5843 263.031 32.2513 264.257 32.65C266.373 33.294 267.838 34.0453 268.65 34.904C269.478 35.7627 269.892 36.8897 269.892 38.285C269.892 41.5817 267.815 43.23 263.659 43.23C262.341 43.23 261.145 43.023 260.071 42.609C259.703 42.471 259.412 42.2333 259.197 41.896C258.998 41.5433 258.898 41.16 258.898 40.746V40.01C258.898 39.734 259.021 39.527 259.266 39.389C259.512 39.2357 259.757 39.2203 260.002 39.343C261.122 39.895 262.264 40.171 263.429 40.171C264.242 40.171 264.855 40.0177 265.269 39.711C265.699 39.389 265.913 38.9367 265.913 38.354C265.913 37.848 265.768 37.434 265.476 37.112C265.185 36.79 264.679 36.514 263.958 36.284ZM88.059 77C87.7063 77 87.3997 76.8697 87.139 76.609C86.8783 76.3483 86.748 76.0417 86.748 75.689V61.521C86.748 61.1683 86.8783 60.8617 87.139 60.601C87.3997 60.3403 87.7063 60.21 88.059 60.21H89.186C90.06 60.21 90.6963 60.5933 91.095 61.36L95.925 70.491C95.925 70.5063 95.9327 70.514 95.948 70.514C95.9633 70.514 95.971 70.5063 95.971 70.491V61.521C95.971 61.1683 96.1013 60.8617 96.362 60.601C96.6227 60.3403 96.9293 60.21 97.282 60.21H98.409C98.7617 60.21 99.0683 60.3403 99.329 60.601C99.5897 60.8617 99.72 61.1683 99.72 61.521V75.689C99.72 76.0417 99.5897 76.3483 99.329 76.609C99.0683 76.8697 98.7617 77 98.409 77H97.282C96.408 77 95.7717 76.6167 95.373 75.85L90.543 66.719C90.543 66.7037 90.5353 66.696 90.52 66.696C90.5047 66.696 90.497 66.7037 90.497 66.719V75.689C90.497 76.0417 90.3667 76.3483 90.106 76.609C89.8453 76.8697 89.5387 77 89.186 77H88.059ZM119.082 70.905C119.082 75.1217 116.935 77.23 112.642 77.23C108.349 77.23 106.202 75.1217 106.202 70.905V61.521C106.202 61.1683 106.332 60.8617 106.593 60.601C106.854 60.3403 107.16 60.21 107.513 60.21H108.847C109.2 60.21 109.506 60.3403 109.767 60.601C110.028 60.8617 110.158 61.1683 110.158 61.521V71.181C110.158 72.2237 110.357 72.9673 110.756 73.412C111.155 73.8567 111.799 74.079 112.688 74.079C113.577 74.079 114.221 73.8567 114.62 73.412C115.019 72.9673 115.218 72.2237 115.218 71.181V61.521C115.218 61.1683 115.348 60.8617 115.609 60.601C115.87 60.3403 116.176 60.21 116.529 60.21H117.771C118.124 60.21 118.43 60.3403 118.691 60.601C118.952 60.8617 119.082 61.1683 119.082 61.521V70.905ZM126.313 63.453C125.96 63.453 125.653 63.3227 125.393 63.062C125.132 62.8013 125.002 62.4947 125.002 62.142V61.521C125.002 61.1683 125.132 60.8617 125.393 60.601C125.653 60.3403 125.96 60.21 126.313 60.21H136.571C136.923 60.21 137.23 60.3403 137.491 60.601C137.751 60.8617 137.882 61.1683 137.882 61.521V62.142C137.882 62.4947 137.751 62.8013 137.491 63.062C137.23 63.3227 136.923 63.453 136.571 63.453H133.627C133.504 63.453 133.443 63.5143 133.443 63.637V75.689C133.443 76.0417 133.312 76.3483 133.052 76.609C132.791 76.8697 132.484 77 132.132 77H130.752C130.399 77 130.092 76.8697 129.832 76.609C129.571 76.3483 129.441 76.0417 129.441 75.689V63.637C129.441 63.5143 129.379 63.453 129.257 63.453H126.313ZM147.866 63.292V67.708C147.866 67.846 147.928 67.915 148.05 67.915H149.154C150.228 67.915 151.048 67.6927 151.615 67.248C152.183 66.788 152.466 66.1517 152.466 65.339C152.466 63.7443 151.416 62.947 149.315 62.947C148.84 62.947 148.426 62.9777 148.073 63.039C147.935 63.0697 147.866 63.154 147.866 63.292ZM145.336 77C144.984 77 144.677 76.8697 144.416 76.609C144.156 76.3483 144.025 76.0417 144.025 75.689V61.636C144.025 61.2527 144.148 60.923 144.393 60.647C144.654 60.371 144.968 60.2177 145.336 60.187C146.701 60.049 148.104 59.98 149.545 59.98C151.845 59.98 153.555 60.417 154.674 61.291C155.809 62.1497 156.376 63.3763 156.376 64.971C156.376 65.9983 156.077 66.926 155.479 67.754C154.881 68.5667 154.099 69.1493 153.133 69.502C153.118 69.502 153.11 69.5097 153.11 69.525C153.11 69.5557 153.126 69.571 153.156 69.571C153.908 70.0003 154.544 70.905 155.065 72.285L156.376 75.781C156.484 76.0723 156.445 76.3483 156.261 76.609C156.077 76.8697 155.832 77 155.525 77H154.122C153.724 77 153.363 76.885 153.041 76.655C152.719 76.425 152.497 76.126 152.374 75.758L151.224 72.446C151.01 71.802 150.749 71.365 150.442 71.135C150.136 70.905 149.66 70.79 149.016 70.79H148.05C147.928 70.79 147.866 70.859 147.866 70.997V75.689C147.866 76.0417 147.736 76.3483 147.475 76.609C147.215 76.8697 146.908 77 146.555 77H145.336ZM163.882 77C163.529 77 163.223 76.8697 162.962 76.609C162.717 76.3483 162.594 76.0417 162.594 75.689V61.521C162.594 61.1683 162.717 60.8617 162.962 60.601C163.223 60.3403 163.529 60.21 163.882 60.21H165.584C165.937 60.21 166.236 60.3403 166.481 60.601C166.742 60.8617 166.872 61.1683 166.872 61.521V75.689C166.872 76.0417 166.742 76.3483 166.481 76.609C166.236 76.8697 165.937 77 165.584 77H163.882ZM175.11 71.802C174.757 71.802 174.451 71.6717 174.19 71.411C173.945 71.1503 173.822 70.8437 173.822 70.491V70.169C173.822 69.8163 173.945 69.5097 174.19 69.249C174.451 68.9883 174.757 68.858 175.11 68.858H180.492C180.845 68.858 181.144 68.9883 181.389 69.249C181.65 69.5097 181.78 69.8163 181.78 70.169V70.491C181.78 70.8437 181.65 71.1503 181.389 71.411C181.144 71.6717 180.845 71.802 180.492 71.802H175.11ZM192.702 70.284C190.77 69.6707 189.375 68.9117 188.516 68.007C187.658 67.087 187.228 65.9677 187.228 64.649C187.228 63.2077 187.727 62.073 188.723 61.245C189.735 60.4017 191.177 59.98 193.047 59.98C194.458 59.98 195.738 60.141 196.888 60.463C197.256 60.5703 197.548 60.7927 197.762 61.13C197.992 61.452 198.107 61.8123 198.107 62.211V62.878C198.107 63.1847 197.977 63.4223 197.716 63.591C197.456 63.7597 197.18 63.7903 196.888 63.683C195.585 63.223 194.381 62.993 193.277 62.993C191.867 62.993 191.161 63.545 191.161 64.649C191.161 65.5843 191.775 66.2513 193.001 66.65C195.117 67.294 196.582 68.0453 197.394 68.904C198.222 69.7627 198.636 70.8897 198.636 72.285C198.636 75.5817 196.559 77.23 192.403 77.23C191.085 77.23 189.889 77.023 188.815 76.609C188.447 76.471 188.156 76.2333 187.941 75.896C187.742 75.5433 187.642 75.16 187.642 74.746V74.01C187.642 73.734 187.765 73.527 188.01 73.389C188.256 73.2357 188.501 73.2203 188.746 73.343C189.866 73.895 191.008 74.171 192.173 74.171C192.986 74.171 193.599 74.0177 194.013 73.711C194.443 73.389 194.657 72.9367 194.657 72.354C194.657 71.848 194.512 71.434 194.22 71.112C193.929 70.79 193.423 70.514 192.702 70.284ZM211.606 77.23C209.091 77.23 207.113 76.4863 205.672 74.999C204.231 73.5117 203.51 71.3803 203.51 68.605C203.51 65.8757 204.208 63.7597 205.603 62.257C206.998 60.739 208.946 59.98 211.445 59.98C212.641 59.98 213.684 60.0643 214.573 60.233C214.941 60.2943 215.24 60.4783 215.47 60.785C215.7 61.0917 215.815 61.4367 215.815 61.82V62.556C215.815 62.878 215.685 63.131 215.424 63.315C215.163 63.499 214.88 63.5527 214.573 63.476C213.699 63.246 212.81 63.131 211.905 63.131C210.525 63.131 209.444 63.5987 208.662 64.534C207.895 65.4693 207.512 66.8263 207.512 68.605C207.512 70.353 207.926 71.71 208.754 72.676C209.582 73.642 210.686 74.125 212.066 74.125C212.986 74.125 213.883 74.01 214.757 73.78C215.064 73.7033 215.347 73.757 215.608 73.941C215.884 74.125 216.022 74.378 216.022 74.7V75.39C216.022 75.7733 215.899 76.1183 215.654 76.425C215.424 76.7317 215.125 76.9157 214.757 76.977C213.852 77.1457 212.802 77.23 211.606 77.23ZM233.104 68.605C233.104 65.0017 231.816 63.2 229.24 63.2C226.664 63.2 225.376 65.0017 225.376 68.605C225.376 72.2083 226.664 74.01 229.24 74.01C231.816 74.01 233.104 72.2083 233.104 68.605ZM234.99 74.953C233.58 76.471 231.663 77.23 229.24 77.23C226.818 77.23 224.901 76.471 223.49 74.953C222.08 73.4197 221.374 71.3037 221.374 68.605C221.374 65.9063 222.08 63.798 223.49 62.28C224.901 60.7467 226.818 59.98 229.24 59.98C231.663 59.98 233.58 60.7467 234.99 62.28C236.401 63.798 237.106 65.9063 237.106 68.605C237.106 71.3037 236.401 73.4197 234.99 74.953ZM246.631 63.292V67.708C246.631 67.846 246.692 67.915 246.815 67.915H247.919C248.992 67.915 249.812 67.6927 250.38 67.248C250.947 66.788 251.231 66.1517 251.231 65.339C251.231 63.7443 250.18 62.947 248.08 62.947C247.604 62.947 247.19 62.9777 246.838 63.039C246.7 63.0697 246.631 63.154 246.631 63.292ZM244.101 77C243.748 77 243.441 76.8697 243.181 76.609C242.92 76.3483 242.79 76.0417 242.79 75.689V61.636C242.79 61.2527 242.912 60.923 243.158 60.647C243.418 60.371 243.733 60.2177 244.101 60.187C245.465 60.049 246.868 59.98 248.31 59.98C250.61 59.98 252.319 60.417 253.439 61.291C254.573 62.1497 255.141 63.3763 255.141 64.971C255.141 65.9983 254.842 66.926 254.244 67.754C253.646 68.5667 252.864 69.1493 251.898 69.502C251.882 69.502 251.875 69.5097 251.875 69.525C251.875 69.5557 251.89 69.571 251.921 69.571C252.672 70.0003 253.308 70.905 253.83 72.285L255.141 75.781C255.248 76.0723 255.21 76.3483 255.026 76.609C254.842 76.8697 254.596 77 254.29 77H252.887C252.488 77 252.128 76.885 251.806 76.655C251.484 76.425 251.261 76.126 251.139 75.758L249.989 72.446C249.774 71.802 249.513 71.365 249.207 71.135C248.9 70.905 248.425 70.79 247.781 70.79H246.815C246.692 70.79 246.631 70.859 246.631 70.997V75.689C246.631 76.0417 246.5 76.3483 246.24 76.609C245.979 76.8697 245.672 77 245.32 77H244.101ZM262.301 77C261.949 77 261.642 76.8697 261.381 76.609C261.136 76.3483 261.013 76.0417 261.013 75.689V61.521C261.013 61.1683 261.136 60.8617 261.381 60.601C261.642 60.3403 261.949 60.21 262.301 60.21H270.443C270.796 60.21 271.095 60.3403 271.34 60.601C271.601 60.8617 271.731 61.1683 271.731 61.521V62.05C271.731 62.4027 271.601 62.7093 271.34 62.97C271.095 63.2307 270.796 63.361 270.443 63.361H265.107C264.985 63.361 264.923 63.4223 264.923 63.545V66.581C264.923 66.719 264.985 66.788 265.107 66.788H269.983C270.336 66.788 270.635 66.9183 270.88 67.179C271.141 67.4397 271.271 67.7463 271.271 68.099V68.444C271.271 68.7967 271.141 69.1033 270.88 69.364C270.635 69.6247 270.336 69.755 269.983 69.755H265.107C264.985 69.755 264.923 69.8163 264.923 69.939V73.665C264.923 73.7877 264.985 73.849 265.107 73.849H270.443C270.796 73.849 271.095 73.9793 271.34 74.24C271.601 74.5007 271.731 74.8073 271.731 75.16V75.689C271.731 76.0417 271.601 76.3483 271.34 76.609C271.095 76.8697 270.796 77 270.443 77H262.301Z" fill="#797978"/>
<path d="M116.406 134.023H107.641L107.594 129.195H114.953C116.25 129.195 117.312 129.031 118.141 128.703C118.969 128.359 119.586 127.867 119.992 127.227C120.414 126.57 120.625 125.773 120.625 124.836C120.625 123.773 120.422 122.914 120.016 122.258C119.625 121.602 119.008 121.125 118.164 120.828C117.336 120.531 116.266 120.383 114.953 120.383H110.078V149H103.047V114.875H114.953C116.938 114.875 118.711 115.062 120.273 115.438C121.852 115.812 123.188 116.383 124.281 117.148C125.375 117.914 126.211 118.883 126.789 120.055C127.367 121.211 127.656 122.586 127.656 124.18C127.656 125.586 127.336 126.883 126.695 128.07C126.07 129.258 125.078 130.227 123.719 130.977C122.375 131.727 120.617 132.141 118.445 132.219L116.406 134.023ZM116.102 149H105.719L108.461 143.516H116.102C117.336 143.516 118.344 143.32 119.125 142.93C119.906 142.523 120.484 141.977 120.859 141.289C121.234 140.602 121.422 139.812 121.422 138.922C121.422 137.922 121.25 137.055 120.906 136.32C120.578 135.586 120.047 135.023 119.312 134.633C118.578 134.227 117.609 134.023 116.406 134.023H109.633L109.68 129.195H118.117L119.734 131.094C121.812 131.062 123.484 131.43 124.75 132.195C126.031 132.945 126.961 133.922 127.539 135.125C128.133 136.328 128.43 137.617 128.43 138.992C128.43 141.18 127.953 143.023 127 144.523C126.047 146.008 124.648 147.125 122.805 147.875C120.977 148.625 118.742 149 116.102 149Z" fill="white"/>
<path d="M186.828 137.68H193.836C193.695 139.977 193.062 142.016 191.938 143.797C190.828 145.578 189.273 146.969 187.273 147.969C185.289 148.969 182.898 149.469 180.102 149.469C177.914 149.469 175.953 149.094 174.219 148.344C172.484 147.578 171 146.484 169.766 145.062C168.547 143.641 167.617 141.922 166.977 139.906C166.336 137.891 166.016 135.633 166.016 133.133V130.766C166.016 128.266 166.344 126.008 167 123.992C167.672 121.961 168.625 120.234 169.859 118.812C171.109 117.391 172.602 116.297 174.336 115.531C176.07 114.766 178.008 114.383 180.148 114.383C182.992 114.383 185.391 114.898 187.344 115.93C189.312 116.961 190.836 118.383 191.914 120.195C193.008 122.008 193.664 124.07 193.883 126.383H186.852C186.773 125.008 186.5 123.844 186.031 122.891C185.562 121.922 184.852 121.195 183.898 120.711C182.961 120.211 181.711 119.961 180.148 119.961C178.977 119.961 177.953 120.18 177.078 120.617C176.203 121.055 175.469 121.719 174.875 122.609C174.281 123.5 173.836 124.625 173.539 125.984C173.258 127.328 173.117 128.906 173.117 130.719V133.133C173.117 134.898 173.25 136.453 173.516 137.797C173.781 139.125 174.188 140.25 174.734 141.172C175.297 142.078 176.016 142.766 176.891 143.234C177.781 143.688 178.852 143.914 180.102 143.914C181.57 143.914 182.781 143.68 183.734 143.211C184.688 142.742 185.414 142.047 185.914 141.125C186.43 140.203 186.734 139.055 186.828 137.68Z" fill="white"/>
<path d="M241.523 151H234.094L234.141 145.516H241.523C243.367 145.516 244.922 145.102 246.188 144.273C247.453 143.43 248.406 142.203 249.047 140.594C249.703 138.984 250.031 137.039 250.031 134.758V133.094C250.031 131.344 249.844 129.805 249.469 128.477C249.109 127.148 248.57 126.031 247.852 125.125C247.133 124.219 246.25 123.539 245.203 123.086C244.156 122.617 242.953 122.383 241.594 122.383H233.953V116.875H241.594C243.875 116.875 245.961 117.266 247.852 118.047C249.758 118.812 251.406 119.914 252.797 121.352C254.188 122.789 255.258 124.508 256.008 126.508C256.773 128.492 257.156 130.703 257.156 133.141V134.758C257.156 137.18 256.773 139.391 256.008 141.391C255.258 143.391 254.188 145.109 252.797 146.547C251.422 147.969 249.773 149.07 247.852 149.852C245.945 150.617 243.836 151 241.523 151ZM238.078 116.875V151H231.047V116.875H238.078Z" fill="white"/>
<path d="M318.945 145.516V151H300.781V145.516H318.945ZM303.078 116.875V151H296.047V116.875H303.078ZM316.578 130.773V136.117H300.781V130.773H316.578ZM318.922 116.875V122.383H300.781V116.875H318.922Z" fill="white"/>
<g filter="url(#filter0_d_1_20)">
<path d="M20 112C20 95.4315 33.4315 82 50 82H54C70.5685 82 84 95.4315 84 112V157C84 173.569 70.5685 187 54 187H50C33.4315 187 20 173.569 20 157V112Z" fill="#007F3D"/>
<path d="M50 79C31.7746 79 17 93.7746 17 112V157C17 175.225 31.7746 190 50 190H54C72.2254 190 87 175.225 87 157V112C87 93.7746 72.2254 79 54 79H50Z" stroke="white" stroke-width="6"/>
</g>
<path d="M52.0391 121.186L41.292 156H29.8789L46.0752 111.922H53.3105L52.0391 121.186ZM60.9395 156L50.1621 121.186L48.7695 111.922H56.0957L72.3828 156H60.9395ZM60.5156 139.562V147.766H37.9014V139.562H60.5156Z" fill="white"/>
<defs>
<filter id="filter0_d_1_20" x="0.6" y="64.6" width="102.8" height="143.8" filterUnits="userSpaceOnUse" color-interpolation-filters="sRGB">
<feFlood flood-opacity="0" result="BackgroundImageFix"/>
<feColorMatrix in="SourceAlpha" type="matrix" values="0 0 0 0 0 0 0 0 0 0 0 0 0 0 0 0 0 0 127 0" result="hardAlpha"/>
<feMorphology radius="1" operator="dilate" in="SourceAlpha" result="effect1_dropShadow_1_20"/>
<feOffset dy="2"/>
<feGaussianBlur stdDeviation="6.2"/>
<feComposite in2="hardAlpha" operator="out"/>
<feColorMatrix type="matrix" values="0 0 0 0 0 0 0 0 0 0 0 0 0 0 0 0 0 0 0.25 0"/>
<feBlend mode="normal" in2="BackgroundImageFix" result="effect1_dropShadow_1_20"/>
<feBlend mode="normal" in="SourceGraphic" in2="effect1_dropShadow_1_20" result="shape"/>
</filter>
</defs>
</svg>
