<svg width="352" height="209" viewBox="0 0 352 209" fill="none" xmlns="http://www.w3.org/2000/svg">
<rect width="352" height="190.018" rx="30" fill="#FFC533"/>
<rect x="6.2301" y="6.2301" width="339.54" height="177.558" rx="30" fill="white"/>
<rect x="16" y="95" width="319" height="77" rx="30" fill="#D9D9D9"/>
<path d="M16 125C16 108.431 29.4315 95 46 95H80V172H46C29.4315 172 16 158.569 16 142V125Z" fill="#007F3D"/>
<path d="M80 95H144V172H80V95Z" fill="#85BC21"/>
<path d="M208 95H272V172H208V95Z" fill="#F07C00"/>
<path d="M271 95H305C321.569 95 335 108.431 335 125V142C335 158.569 321.569 172 305 172H271V95Z" fill="#E62C10"/>
<path d="M84.059 43C83.7063 43 83.3997 42.8697 83.139 42.609C82.8783 42.3483 82.748 42.0417 82.748 41.689V27.521C82.748 27.1683 82.8783 26.8617 83.139 26.601C83.3997 26.3403 83.7063 26.21 84.059 26.21H85.186C86.06 26.21 86.6963 26.5933 87.095 27.36L91.925 36.491C91.925 36.5063 91.9327 36.514 91.948 36.514C91.9633 36.514 91.971 36.5063 91.971 36.491V27.521C91.971 27.1683 92.1013 26.8617 92.362 26.601C92.6227 26.3403 92.9293 26.21 93.282 26.21H94.409C94.7617 26.21 95.0683 26.3403 95.329 26.601C95.5897 26.8617 95.72 27.1683 95.72 27.521V41.689C95.72 42.0417 95.5897 42.3483 95.329 42.609C95.0683 42.8697 94.7617 43 94.409 43H93.282C92.408 43 91.7717 42.6167 91.373 41.85L86.543 32.719C86.543 32.7037 86.5353 32.696 86.52 32.696C86.5047 32.696 86.497 32.7037 86.497 32.719V41.689C86.497 42.0417 86.3667 42.3483 86.106 42.609C85.8453 42.8697 85.5387 43 85.186 43H84.059ZM115.082 36.905C115.082 41.1217 112.935 43.23 108.642 43.23C104.349 43.23 102.202 41.1217 102.202 36.905V27.521C102.202 27.1683 102.332 26.8617 102.593 26.601C102.854 26.3403 103.16 26.21 103.513 26.21H104.847C105.2 26.21 105.506 26.3403 105.767 26.601C106.028 26.8617 106.158 27.1683 106.158 27.521V37.181C106.158 38.2237 106.357 38.9673 106.756 39.412C107.155 39.8567 107.799 40.079 108.688 40.079C109.577 40.079 110.221 39.8567 110.62 39.412C111.019 38.9673 111.218 38.2237 111.218 37.181V27.521C111.218 27.1683 111.348 26.8617 111.609 26.601C111.87 26.3403 112.176 26.21 112.529 26.21H113.771C114.124 26.21 114.43 26.3403 114.691 26.601C114.952 26.8617 115.082 27.1683 115.082 27.521V36.905ZM122.313 29.453C121.96 29.453 121.653 29.3227 121.393 29.062C121.132 28.8013 121.002 28.4947 121.002 28.142V27.521C121.002 27.1683 121.132 26.8617 121.393 26.601C121.653 26.3403 121.96 26.21 122.313 26.21H132.571C132.923 26.21 133.23 26.3403 133.491 26.601C133.751 26.8617 133.882 27.1683 133.882 27.521V28.142C133.882 28.4947 133.751 28.8013 133.491 29.062C133.23 29.3227 132.923 29.453 132.571 29.453H129.627C129.504 29.453 129.443 29.5143 129.443 29.637V41.689C129.443 42.0417 129.312 42.3483 129.052 42.609C128.791 42.8697 128.484 43 128.132 43H126.752C126.399 43 126.092 42.8697 125.832 42.609C125.571 42.3483 125.441 42.0417 125.441 41.689V29.637C125.441 29.5143 125.379 29.453 125.257 29.453H122.313ZM143.866 29.292V33.708C143.866 33.846 143.928 33.915 144.05 33.915H145.154C146.228 33.915 147.048 33.6927 147.615 33.248C148.183 32.788 148.466 32.1517 148.466 31.339C148.466 29.7443 147.416 28.947 145.315 28.947C144.84 28.947 144.426 28.9777 144.073 29.039C143.935 29.0697 143.866 29.154 143.866 29.292ZM141.336 43C140.984 43 140.677 42.8697 140.416 42.609C140.156 42.3483 140.025 42.0417 140.025 41.689V27.636C140.025 27.2527 140.148 26.923 140.393 26.647C140.654 26.371 140.968 26.2177 141.336 26.187C142.701 26.049 144.104 25.98 145.545 25.98C147.845 25.98 149.555 26.417 150.674 27.291C151.809 28.1497 152.376 29.3763 152.376 30.971C152.376 31.9983 152.077 32.926 151.479 33.754C150.881 34.5667 150.099 35.1493 149.133 35.502C149.118 35.502 149.11 35.5097 149.11 35.525C149.11 35.5557 149.126 35.571 149.156 35.571C149.908 36.0003 150.544 36.905 151.065 38.285L152.376 41.781C152.484 42.0723 152.445 42.3483 152.261 42.609C152.077 42.8697 151.832 43 151.525 43H150.122C149.724 43 149.363 42.885 149.041 42.655C148.719 42.425 148.497 42.126 148.374 41.758L147.224 38.446C147.01 37.802 146.749 37.365 146.442 37.135C146.136 36.905 145.66 36.79 145.016 36.79H144.05C143.928 36.79 143.866 36.859 143.866 36.997V41.689C143.866 42.0417 143.736 42.3483 143.475 42.609C143.215 42.8697 142.908 43 142.555 43H141.336ZM159.882 43C159.529 43 159.223 42.8697 158.962 42.609C158.717 42.3483 158.594 42.0417 158.594 41.689V27.521C158.594 27.1683 158.717 26.8617 158.962 26.601C159.223 26.3403 159.529 26.21 159.882 26.21H161.584C161.937 26.21 162.236 26.3403 162.481 26.601C162.742 26.8617 162.872 27.1683 162.872 27.521V41.689C162.872 42.0417 162.742 42.3483 162.481 42.609C162.236 42.8697 161.937 43 161.584 43H159.882ZM171.248 43C170.895 43 170.589 42.8697 170.328 42.609C170.067 42.3483 169.937 42.0417 169.937 41.689V27.521C169.937 27.1683 170.067 26.8617 170.328 26.601C170.589 26.3403 170.895 26.21 171.248 26.21H172.559C172.958 26.21 173.318 26.3173 173.64 26.532C173.962 26.7467 174.2 27.038 174.353 27.406L177.918 36.077C177.918 36.0923 177.926 36.1 177.941 36.1C177.956 36.1 177.964 36.0923 177.964 36.077L181.529 27.406C181.682 27.038 181.92 26.7467 182.242 26.532C182.564 26.3173 182.924 26.21 183.323 26.21H184.726C185.079 26.21 185.385 26.3403 185.646 26.601C185.907 26.8617 186.037 27.1683 186.037 27.521V41.689C186.037 42.0417 185.907 42.3483 185.646 42.609C185.385 42.8697 185.079 43 184.726 43H183.622C183.269 43 182.963 42.8697 182.702 42.609C182.457 42.3483 182.334 42.0417 182.334 41.689V32.742C182.334 32.7267 182.326 32.719 182.311 32.719C182.28 32.719 182.265 32.7267 182.265 32.742L180.057 37.963C179.904 38.331 179.658 38.6223 179.321 38.837C178.999 39.0517 178.639 39.159 178.24 39.159H177.642C177.243 39.159 176.875 39.0517 176.538 38.837C176.216 38.6223 175.978 38.331 175.825 37.963L173.617 32.742C173.617 32.7267 173.602 32.719 173.571 32.719C173.556 32.719 173.548 32.7267 173.548 32.742V41.689C173.548 42.0417 173.418 42.3483 173.157 42.609C172.912 42.8697 172.613 43 172.26 43H171.248ZM198.723 29.614L197.044 36.215C197.028 36.261 197.036 36.307 197.067 36.353C197.113 36.3837 197.159 36.399 197.205 36.399H200.287C200.333 36.399 200.371 36.3837 200.402 36.353C200.448 36.307 200.463 36.261 200.448 36.215L198.769 29.614C198.769 29.5987 198.761 29.591 198.746 29.591C198.73 29.591 198.723 29.5987 198.723 29.614ZM192.582 43C192.26 43 191.999 42.8697 191.8 42.609C191.616 42.3483 191.577 42.0647 191.685 41.758L196.331 27.452C196.453 27.084 196.668 26.785 196.975 26.555C197.297 26.325 197.649 26.21 198.033 26.21H199.551C199.949 26.21 200.31 26.325 200.632 26.555C200.954 26.785 201.168 27.084 201.276 27.452L205.899 41.758C206.006 42.0647 205.96 42.3483 205.761 42.609C205.577 42.8697 205.324 43 205.002 43H203.461C203.077 43 202.732 42.885 202.426 42.655C202.119 42.4097 201.92 42.103 201.828 41.735L201.276 39.55C201.26 39.4273 201.184 39.366 201.046 39.366H196.446C196.323 39.366 196.246 39.4273 196.216 39.55L195.664 41.735C195.572 42.103 195.372 42.4097 195.066 42.655C194.759 42.885 194.414 43 194.031 43H192.582ZM209.434 29.453C209.081 29.453 208.775 29.3227 208.514 29.062C208.253 28.8013 208.123 28.4947 208.123 28.142V27.521C208.123 27.1683 208.253 26.8617 208.514 26.601C208.775 26.3403 209.081 26.21 209.434 26.21H219.692C220.045 26.21 220.351 26.3403 220.612 26.601C220.873 26.8617 221.003 27.1683 221.003 27.521V28.142C221.003 28.4947 220.873 28.8013 220.612 29.062C220.351 29.3227 220.045 29.453 219.692 29.453H216.748C216.625 29.453 216.564 29.5143 216.564 29.637V41.689C216.564 42.0417 216.434 42.3483 216.173 42.609C215.912 42.8697 215.606 43 215.253 43H213.873C213.52 43 213.214 42.8697 212.953 42.609C212.692 42.3483 212.562 42.0417 212.562 41.689V29.637C212.562 29.5143 212.501 29.453 212.378 29.453H209.434ZM228.435 43C228.082 43 227.775 42.8697 227.515 42.609C227.269 42.3483 227.147 42.0417 227.147 41.689V27.521C227.147 27.1683 227.269 26.8617 227.515 26.601C227.775 26.3403 228.082 26.21 228.435 26.21H236.577C236.929 26.21 237.228 26.3403 237.474 26.601C237.734 26.8617 237.865 27.1683 237.865 27.521V28.05C237.865 28.4027 237.734 28.7093 237.474 28.97C237.228 29.2307 236.929 29.361 236.577 29.361H231.241C231.118 29.361 231.057 29.4223 231.057 29.545V32.581C231.057 32.719 231.118 32.788 231.241 32.788H236.117C236.469 32.788 236.768 32.9183 237.014 33.179C237.274 33.4397 237.405 33.7463 237.405 34.099V34.444C237.405 34.7967 237.274 35.1033 237.014 35.364C236.768 35.6247 236.469 35.755 236.117 35.755H231.241C231.118 35.755 231.057 35.8163 231.057 35.939V39.665C231.057 39.7877 231.118 39.849 231.241 39.849H236.577C236.929 39.849 237.228 39.9793 237.474 40.24C237.734 40.5007 237.865 40.8073 237.865 41.16V41.689C237.865 42.0417 237.734 42.3483 237.474 42.609C237.228 42.8697 236.929 43 236.577 43H228.435ZM245.142 32.19C244.804 32.19 244.528 32.0673 244.314 31.822C244.114 31.5613 244.045 31.2623 244.107 30.925L245.027 26.555C245.103 26.187 245.287 25.888 245.579 25.658C245.87 25.4127 246.207 25.29 246.591 25.29H248.431C248.737 25.29 248.975 25.4203 249.144 25.681C249.328 25.9417 249.366 26.2177 249.259 26.509L247.534 30.971C247.396 31.339 247.166 31.638 246.844 31.868C246.522 32.0827 246.161 32.19 245.763 32.19H245.142ZM259.958 36.284C258.026 35.6707 256.631 34.9117 255.772 34.007C254.914 33.087 254.484 31.9677 254.484 30.649C254.484 29.2077 254.983 28.073 255.979 27.245C256.991 26.4017 258.433 25.98 260.303 25.98C261.714 25.98 262.994 26.141 264.144 26.463C264.512 26.5703 264.804 26.7927 265.018 27.13C265.248 27.452 265.363 27.8123 265.363 28.211V28.878C265.363 29.1847 265.233 29.4223 264.972 29.591C264.712 29.7597 264.436 29.7903 264.144 29.683C262.841 29.223 261.637 28.993 260.533 28.993C259.123 28.993 258.417 29.545 258.417 30.649C258.417 31.5843 259.031 32.2513 260.257 32.65C262.373 33.294 263.838 34.0453 264.65 34.904C265.478 35.7627 265.892 36.8897 265.892 38.285C265.892 41.5817 263.815 43.23 259.659 43.23C258.341 43.23 257.145 43.023 256.071 42.609C255.703 42.471 255.412 42.2333 255.197 41.896C254.998 41.5433 254.898 41.16 254.898 40.746V40.01C254.898 39.734 255.021 39.527 255.266 39.389C255.512 39.2357 255.757 39.2203 256.002 39.343C257.122 39.895 258.264 40.171 259.429 40.171C260.242 40.171 260.855 40.0177 261.269 39.711C261.699 39.389 261.913 38.9367 261.913 38.354C261.913 37.848 261.768 37.434 261.476 37.112C261.185 36.79 260.679 36.514 259.958 36.284ZM84.059 77C83.7063 77 83.3997 76.8697 83.139 76.609C82.8783 76.3483 82.748 76.0417 82.748 75.689V61.521C82.748 61.1683 82.8783 60.8617 83.139 60.601C83.3997 60.3403 83.7063 60.21 84.059 60.21H85.186C86.06 60.21 86.6963 60.5933 87.095 61.36L91.925 70.491C91.925 70.5063 91.9327 70.514 91.948 70.514C91.9633 70.514 91.971 70.5063 91.971 70.491V61.521C91.971 61.1683 92.1013 60.8617 92.362 60.601C92.6227 60.3403 92.9293 60.21 93.282 60.21H94.409C94.7617 60.21 95.0683 60.3403 95.329 60.601C95.5897 60.8617 95.72 61.1683 95.72 61.521V75.689C95.72 76.0417 95.5897 76.3483 95.329 76.609C95.0683 76.8697 94.7617 77 94.409 77H93.282C92.408 77 91.7717 76.6167 91.373 75.85L86.543 66.719C86.543 66.7037 86.5353 66.696 86.52 66.696C86.5047 66.696 86.497 66.7037 86.497 66.719V75.689C86.497 76.0417 86.3667 76.3483 86.106 76.609C85.8453 76.8697 85.5387 77 85.186 77H84.059ZM115.082 70.905C115.082 75.1217 112.935 77.23 108.642 77.23C104.349 77.23 102.202 75.1217 102.202 70.905V61.521C102.202 61.1683 102.332 60.8617 102.593 60.601C102.854 60.3403 103.16 60.21 103.513 60.21H104.847C105.2 60.21 105.506 60.3403 105.767 60.601C106.028 60.8617 106.158 61.1683 106.158 61.521V71.181C106.158 72.2237 106.357 72.9673 106.756 73.412C107.155 73.8567 107.799 74.079 108.688 74.079C109.577 74.079 110.221 73.8567 110.62 73.412C111.019 72.9673 111.218 72.2237 111.218 71.181V61.521C111.218 61.1683 111.348 60.8617 111.609 60.601C111.87 60.3403 112.176 60.21 112.529 60.21H113.771C114.124 60.21 114.43 60.3403 114.691 60.601C114.952 60.8617 115.082 61.1683 115.082 61.521V70.905ZM122.313 63.453C121.96 63.453 121.653 63.3227 121.393 63.062C121.132 62.8013 121.002 62.4947 121.002 62.142V61.521C121.002 61.1683 121.132 60.8617 121.393 60.601C121.653 60.3403 121.96 60.21 122.313 60.21H132.571C132.923 60.21 133.23 60.3403 133.491 60.601C133.751 60.8617 133.882 61.1683 133.882 61.521V62.142C133.882 62.4947 133.751 62.8013 133.491 63.062C133.23 63.3227 132.923 63.453 132.571 63.453H129.627C129.504 63.453 129.443 63.5143 129.443 63.637V75.689C129.443 76.0417 129.312 76.3483 129.052 76.609C128.791 76.8697 128.484 77 128.132 77H126.752C126.399 77 126.092 76.8697 125.832 76.609C125.571 76.3483 125.441 76.0417 125.441 75.689V63.637C125.441 63.5143 125.379 63.453 125.257 63.453H122.313ZM143.866 63.292V67.708C143.866 67.846 143.928 67.915 144.05 67.915H145.154C146.228 67.915 147.048 67.6927 147.615 67.248C148.183 66.788 148.466 66.1517 148.466 65.339C148.466 63.7443 147.416 62.947 145.315 62.947C144.84 62.947 144.426 62.9777 144.073 63.039C143.935 63.0697 143.866 63.154 143.866 63.292ZM141.336 77C140.984 77 140.677 76.8697 140.416 76.609C140.156 76.3483 140.025 76.0417 140.025 75.689V61.636C140.025 61.2527 140.148 60.923 140.393 60.647C140.654 60.371 140.968 60.2177 141.336 60.187C142.701 60.049 144.104 59.98 145.545 59.98C147.845 59.98 149.555 60.417 150.674 61.291C151.809 62.1497 152.376 63.3763 152.376 64.971C152.376 65.9983 152.077 66.926 151.479 67.754C150.881 68.5667 150.099 69.1493 149.133 69.502C149.118 69.502 149.11 69.5097 149.11 69.525C149.11 69.5557 149.126 69.571 149.156 69.571C149.908 70.0003 150.544 70.905 151.065 72.285L152.376 75.781C152.484 76.0723 152.445 76.3483 152.261 76.609C152.077 76.8697 151.832 77 151.525 77H150.122C149.724 77 149.363 76.885 149.041 76.655C148.719 76.425 148.497 76.126 148.374 75.758L147.224 72.446C147.01 71.802 146.749 71.365 146.442 71.135C146.136 70.905 145.66 70.79 145.016 70.79H144.05C143.928 70.79 143.866 70.859 143.866 70.997V75.689C143.866 76.0417 143.736 76.3483 143.475 76.609C143.215 76.8697 142.908 77 142.555 77H141.336ZM159.882 77C159.529 77 159.223 76.8697 158.962 76.609C158.717 76.3483 158.594 76.0417 158.594 75.689V61.521C158.594 61.1683 158.717 60.8617 158.962 60.601C159.223 60.3403 159.529 60.21 159.882 60.21H161.584C161.937 60.21 162.236 60.3403 162.481 60.601C162.742 60.8617 162.872 61.1683 162.872 61.521V75.689C162.872 76.0417 162.742 76.3483 162.481 76.609C162.236 76.8697 161.937 77 161.584 77H159.882ZM171.11 71.802C170.757 71.802 170.451 71.6717 170.19 71.411C169.945 71.1503 169.822 70.8437 169.822 70.491V70.169C169.822 69.8163 169.945 69.5097 170.19 69.249C170.451 68.9883 170.757 68.858 171.11 68.858H176.492C176.845 68.858 177.144 68.9883 177.389 69.249C177.65 69.5097 177.78 69.8163 177.78 70.169V70.491C177.78 70.8437 177.65 71.1503 177.389 71.411C177.144 71.6717 176.845 71.802 176.492 71.802H171.11ZM188.702 70.284C186.77 69.6707 185.375 68.9117 184.516 68.007C183.658 67.087 183.228 65.9677 183.228 64.649C183.228 63.2077 183.727 62.073 184.723 61.245C185.735 60.4017 187.177 59.98 189.047 59.98C190.458 59.98 191.738 60.141 192.888 60.463C193.256 60.5703 193.548 60.7927 193.762 61.13C193.992 61.452 194.107 61.8123 194.107 62.211V62.878C194.107 63.1847 193.977 63.4223 193.716 63.591C193.456 63.7597 193.18 63.7903 192.888 63.683C191.585 63.223 190.381 62.993 189.277 62.993C187.867 62.993 187.161 63.545 187.161 64.649C187.161 65.5843 187.775 66.2513 189.001 66.65C191.117 67.294 192.582 68.0453 193.394 68.904C194.222 69.7627 194.636 70.8897 194.636 72.285C194.636 75.5817 192.559 77.23 188.403 77.23C187.085 77.23 185.889 77.023 184.815 76.609C184.447 76.471 184.156 76.2333 183.941 75.896C183.742 75.5433 183.642 75.16 183.642 74.746V74.01C183.642 73.734 183.765 73.527 184.01 73.389C184.256 73.2357 184.501 73.2203 184.746 73.343C185.866 73.895 187.008 74.171 188.173 74.171C188.986 74.171 189.599 74.0177 190.013 73.711C190.443 73.389 190.657 72.9367 190.657 72.354C190.657 71.848 190.512 71.434 190.22 71.112C189.929 70.79 189.423 70.514 188.702 70.284ZM207.606 77.23C205.091 77.23 203.113 76.4863 201.672 74.999C200.231 73.5117 199.51 71.3803 199.51 68.605C199.51 65.8757 200.208 63.7597 201.603 62.257C202.998 60.739 204.946 59.98 207.445 59.98C208.641 59.98 209.684 60.0643 210.573 60.233C210.941 60.2943 211.24 60.4783 211.47 60.785C211.7 61.0917 211.815 61.4367 211.815 61.82V62.556C211.815 62.878 211.685 63.131 211.424 63.315C211.163 63.499 210.88 63.5527 210.573 63.476C209.699 63.246 208.81 63.131 207.905 63.131C206.525 63.131 205.444 63.5987 204.662 64.534C203.895 65.4693 203.512 66.8263 203.512 68.605C203.512 70.353 203.926 71.71 204.754 72.676C205.582 73.642 206.686 74.125 208.066 74.125C208.986 74.125 209.883 74.01 210.757 73.78C211.064 73.7033 211.347 73.757 211.608 73.941C211.884 74.125 212.022 74.378 212.022 74.7V75.39C212.022 75.7733 211.899 76.1183 211.654 76.425C211.424 76.7317 211.125 76.9157 210.757 76.977C209.852 77.1457 208.802 77.23 207.606 77.23ZM229.104 68.605C229.104 65.0017 227.816 63.2 225.24 63.2C222.664 63.2 221.376 65.0017 221.376 68.605C221.376 72.2083 222.664 74.01 225.24 74.01C227.816 74.01 229.104 72.2083 229.104 68.605ZM230.99 74.953C229.58 76.471 227.663 77.23 225.24 77.23C222.818 77.23 220.901 76.471 219.49 74.953C218.08 73.4197 217.374 71.3037 217.374 68.605C217.374 65.9063 218.08 63.798 219.49 62.28C220.901 60.7467 222.818 59.98 225.24 59.98C227.663 59.98 229.58 60.7467 230.99 62.28C232.401 63.798 233.106 65.9063 233.106 68.605C233.106 71.3037 232.401 73.4197 230.99 74.953ZM242.631 63.292V67.708C242.631 67.846 242.692 67.915 242.815 67.915H243.919C244.992 67.915 245.812 67.6927 246.38 67.248C246.947 66.788 247.231 66.1517 247.231 65.339C247.231 63.7443 246.18 62.947 244.08 62.947C243.604 62.947 243.19 62.9777 242.838 63.039C242.7 63.0697 242.631 63.154 242.631 63.292ZM240.101 77C239.748 77 239.441 76.8697 239.181 76.609C238.92 76.3483 238.79 76.0417 238.79 75.689V61.636C238.79 61.2527 238.912 60.923 239.158 60.647C239.418 60.371 239.733 60.2177 240.101 60.187C241.465 60.049 242.868 59.98 244.31 59.98C246.61 59.98 248.319 60.417 249.439 61.291C250.573 62.1497 251.141 63.3763 251.141 64.971C251.141 65.9983 250.842 66.926 250.244 67.754C249.646 68.5667 248.864 69.1493 247.898 69.502C247.882 69.502 247.875 69.5097 247.875 69.525C247.875 69.5557 247.89 69.571 247.921 69.571C248.672 70.0003 249.308 70.905 249.83 72.285L251.141 75.781C251.248 76.0723 251.21 76.3483 251.026 76.609C250.842 76.8697 250.596 77 250.29 77H248.887C248.488 77 248.128 76.885 247.806 76.655C247.484 76.425 247.261 76.126 247.139 75.758L245.989 72.446C245.774 71.802 245.513 71.365 245.207 71.135C244.9 70.905 244.425 70.79 243.781 70.79H242.815C242.692 70.79 242.631 70.859 242.631 70.997V75.689C242.631 76.0417 242.5 76.3483 242.24 76.609C241.979 76.8697 241.672 77 241.32 77H240.101ZM258.301 77C257.949 77 257.642 76.8697 257.381 76.609C257.136 76.3483 257.013 76.0417 257.013 75.689V61.521C257.013 61.1683 257.136 60.8617 257.381 60.601C257.642 60.3403 257.949 60.21 258.301 60.21H266.443C266.796 60.21 267.095 60.3403 267.34 60.601C267.601 60.8617 267.731 61.1683 267.731 61.521V62.05C267.731 62.4027 267.601 62.7093 267.34 62.97C267.095 63.2307 266.796 63.361 266.443 63.361H261.107C260.985 63.361 260.923 63.4223 260.923 63.545V66.581C260.923 66.719 260.985 66.788 261.107 66.788H265.983C266.336 66.788 266.635 66.9183 266.88 67.179C267.141 67.4397 267.271 67.7463 267.271 68.099V68.444C267.271 68.7967 267.141 69.1033 266.88 69.364C266.635 69.6247 266.336 69.755 265.983 69.755H261.107C260.985 69.755 260.923 69.8163 260.923 69.939V73.665C260.923 73.7877 260.985 73.849 261.107 73.849H266.443C266.796 73.849 267.095 73.9793 267.34 74.24C267.601 74.5007 267.731 74.8073 267.731 75.16V75.689C267.731 76.0417 267.601 76.3483 267.34 76.609C267.095 76.8697 266.796 77 266.443 77H258.301Z" fill="#797978"/>
<path d="M47.9219 120.711L38.6406 149H31.1641L43.8438 114.875H48.6016L47.9219 120.711ZM55.6328 149L46.3281 120.711L45.5781 114.875H50.3828L63.1328 149H55.6328ZM55.2109 136.297V141.805H37.1875V136.297H55.2109Z" fill="white"/>
<path d="M112.406 134.023H103.641L103.594 129.195H110.953C112.25 129.195 113.312 129.031 114.141 128.703C114.969 128.359 115.586 127.867 115.992 127.227C116.414 126.57 116.625 125.773 116.625 124.836C116.625 123.773 116.422 122.914 116.016 122.258C115.625 121.602 115.008 121.125 114.164 120.828C113.336 120.531 112.266 120.383 110.953 120.383H106.078V149H99.0469V114.875H110.953C112.938 114.875 114.711 115.062 116.273 115.438C117.852 115.812 119.188 116.383 120.281 117.148C121.375 117.914 122.211 118.883 122.789 120.055C123.367 121.211 123.656 122.586 123.656 124.18C123.656 125.586 123.336 126.883 122.695 128.07C122.07 129.258 121.078 130.227 119.719 130.977C118.375 131.727 116.617 132.141 114.445 132.219L112.406 134.023ZM112.102 149H101.719L104.461 143.516H112.102C113.336 143.516 114.344 143.32 115.125 142.93C115.906 142.523 116.484 141.977 116.859 141.289C117.234 140.602 117.422 139.812 117.422 138.922C117.422 137.922 117.25 137.055 116.906 136.32C116.578 135.586 116.047 135.023 115.312 134.633C114.578 134.227 113.609 134.023 112.406 134.023H105.633L105.68 129.195H114.117L115.734 131.094C117.812 131.062 119.484 131.43 120.75 132.195C122.031 132.945 122.961 133.922 123.539 135.125C124.133 136.328 124.43 137.617 124.43 138.992C124.43 141.18 123.953 143.023 123 144.523C122.047 146.008 120.648 147.125 118.805 147.875C116.977 148.625 114.742 149 112.102 149Z" fill="white"/>
<path d="M237.523 151H230.094L230.141 145.516H237.523C239.367 145.516 240.922 145.102 242.188 144.273C243.453 143.43 244.406 142.203 245.047 140.594C245.703 138.984 246.031 137.039 246.031 134.758V133.094C246.031 131.344 245.844 129.805 245.469 128.477C245.109 127.148 244.57 126.031 243.852 125.125C243.133 124.219 242.25 123.539 241.203 123.086C240.156 122.617 238.953 122.383 237.594 122.383H229.953V116.875H237.594C239.875 116.875 241.961 117.266 243.852 118.047C245.758 118.812 247.406 119.914 248.797 121.352C250.188 122.789 251.258 124.508 252.008 126.508C252.773 128.492 253.156 130.703 253.156 133.141V134.758C253.156 137.18 252.773 139.391 252.008 141.391C251.258 143.391 250.188 145.109 248.797 146.547C247.422 147.969 245.773 149.07 243.852 149.852C241.945 150.617 239.836 151 237.523 151ZM234.078 116.875V151H227.047V116.875H234.078Z" fill="white"/>
<path d="M314.945 145.516V151H296.781V145.516H314.945ZM299.078 116.875V151H292.047V116.875H299.078ZM312.578 130.773V136.117H296.781V130.773H312.578ZM314.922 116.875V122.383H296.781V116.875H314.922Z" fill="white"/>
<g filter="url(#filter0_d_2_32)">
<rect x="144" y="82" width="64" height="105" rx="30" fill="#FFCC00"/>
<rect x="141" y="79" width="70" height="111" rx="33" stroke="white" stroke-width="6"/>
</g>
<path d="M183.427 141.075H194.022C193.881 144.143 193.054 146.847 191.54 149.188C190.026 151.53 187.927 153.356 185.243 154.668C182.579 155.96 179.431 156.605 175.798 156.605C172.851 156.605 170.217 156.111 167.896 155.122C165.596 154.133 163.638 152.71 162.023 150.854C160.429 148.997 159.208 146.746 158.36 144.103C157.533 141.459 157.119 138.482 157.119 135.172V132.78C157.119 129.47 157.553 126.493 158.421 123.85C159.309 121.186 160.56 118.925 162.175 117.068C163.81 115.191 165.767 113.758 168.048 112.77C170.328 111.781 172.861 111.286 175.646 111.286C179.481 111.286 182.72 111.972 185.364 113.345C188.008 114.717 190.057 116.604 191.51 119.006C192.963 121.387 193.821 124.102 194.083 127.149H183.487C183.447 125.494 183.164 124.112 182.64 123.002C182.115 121.872 181.287 121.024 180.157 120.459C179.027 119.894 177.523 119.611 175.646 119.611C174.335 119.611 173.194 119.854 172.226 120.338C171.257 120.822 170.45 121.589 169.804 122.639C169.158 123.688 168.674 125.05 168.351 126.726C168.048 128.381 167.896 130.379 167.896 132.72V135.172C167.896 137.513 168.038 139.511 168.32 141.166C168.603 142.821 169.057 144.173 169.683 145.223C170.308 146.272 171.116 147.049 172.104 147.554C173.114 148.038 174.345 148.28 175.798 148.28C177.412 148.28 178.775 148.028 179.885 147.523C180.995 146.999 181.853 146.212 182.458 145.162C183.063 144.092 183.386 142.73 183.427 141.075Z" fill="white"/>
<defs>
<filter id="filter0_d_2_32" x="124.6" y="64.6" width="102.8" height="143.8" filterUnits="userSpaceOnUse" color-interpolation-filters="sRGB">
<feFlood flood-opacity="0" result="BackgroundImageFix"/>
<feColorMatrix in="SourceAlpha" type="matrix" values="0 0 0 0 0 0 0 0 0 0 0 0 0 0 0 0 0 0 127 0" result="hardAlpha"/>
<feMorphology radius="1" operator="dilate" in="SourceAlpha" result="effect1_dropShadow_2_32"/>
<feOffset dy="2"/>
<feGaussianBlur stdDeviation="6.2"/>
<feComposite in2="hardAlpha" operator="out"/>
<feColorMatrix type="matrix" values="0 0 0 0 0 0 0 0 0 0 0 0 0 0 0 0 0 0 0.25 0"/>
<feBlend mode="normal" in2="BackgroundImageFix" result="effect1_dropShadow_2_32"/>
<feBlend mode="normal" in="SourceGraphic" in2="effect1_dropShadow_2_32" result="shape"/>
</filter>
</defs>
</svg>
